<svg width="17" height="17" viewBox="0 0 17 17" fill="none" xmlns="http://www.w3.org/2000/svg">
<rect width="17" height="17" fill="#E5E5E5"/>
<rect width="1440" height="1024" transform="translate(-1000 -613)" fill="#EFF1F4"/>
<g filter="url(#filter0_d)">
<path d="M-289 -150C-289 -154.418 -285.418 -158 -281 -158H267C271.418 -158 275 -154.418 275 -150V195C275 199.418 271.418 203 267 203H-281C-285.418 203 -289 199.418 -289 195V-150Z" fill="white"/>
<rect x="-289" y="-158" width="564" height="361" rx="8" fill="white"/>
</g>
<g clip-path="url(#clip0)">
<g clip-path="url(#clip1)">
<rect x="-65" y="-20" width="129" height="56" fill="white"/>
<g filter="url(#filter1_i)">
<rect width="17" height="17" rx="2" fill="url(#paint0_linear)"/>
</g>
<path fill-rule="evenodd" clip-rule="evenodd" d="M1.46975 6.44619L1.41669 6.49965L2.41845 7.50142C2.43604 7.48353 2.45371 7.4657 2.47149 7.44793C5.77317 4.14624 11.1153 4.12857 14.4388 7.3949L15.4406 6.39313C11.5638 2.57357 5.32468 2.59126 1.46975 6.44619ZM3.3667 8.44966C6.13292 5.68345 10.6178 5.68345 13.3841 8.44966L12.3823 9.4514C10.1693 7.23843 6.58141 7.23843 4.36844 9.4514L3.3667 8.44966ZM11.3806 10.4531C9.72083 8.7934 7.02988 8.7934 5.37015 10.4531L6.37189 11.4549C7.47837 10.3484 9.27234 10.3484 10.3788 11.4549L11.3806 10.4531ZM9.37711 12.4566C8.82387 11.9034 7.92688 11.9034 7.37364 12.4566L8.37537 13.4583L9.37711 12.4566Z" fill="white"/>
</g>
</g>
<rect width="1440" height="1024" transform="translate(-1000 -613)" fill="#EFF1F4"/>
<g filter="url(#filter2_d)">
<path d="M-289 -150C-289 -154.418 -285.418 -158 -281 -158H267C271.418 -158 275 -154.418 275 -150V195C275 199.418 271.418 203 267 203H-281C-285.418 203 -289 199.418 -289 195V-150Z" fill="white"/>
<rect x="-289" y="-158" width="564" height="361" rx="8" fill="white"/>
</g>
<g clip-path="url(#clip2)">
<g clip-path="url(#clip3)">
<rect x="-65" y="-20" width="129" height="56" fill="white"/>
<g filter="url(#filter3_i)">
<rect width="17" height="17" rx="2" fill="url(#paint1_linear)"/>
</g>
<path fill-rule="evenodd" clip-rule="evenodd" d="M1.46975 6.44619L1.41669 6.49965L2.41845 7.50142C2.43604 7.48353 2.45371 7.4657 2.47149 7.44793C5.77317 4.14624 11.1153 4.12857 14.4388 7.3949L15.4406 6.39313C11.5638 2.57357 5.32468 2.59126 1.46975 6.44619ZM3.3667 8.44966C6.13292 5.68345 10.6178 5.68345 13.3841 8.44966L12.3823 9.4514C10.1693 7.23843 6.58141 7.23843 4.36844 9.4514L3.3667 8.44966ZM11.3806 10.4531C9.72083 8.7934 7.02988 8.7934 5.37015 10.4531L6.37189 11.4549C7.47837 10.3484 9.27234 10.3484 10.3788 11.4549L11.3806 10.4531ZM9.37711 12.4566C8.82387 11.9034 7.92688 11.9034 7.37364 12.4566L8.37537 13.4583L9.37711 12.4566Z" fill="white"/>
</g>
</g>
<defs>
<filter id="filter0_d" x="-301" y="-164" width="588" height="385" filterUnits="userSpaceOnUse" color-interpolation-filters="sRGB">
<feFlood flood-opacity="0" result="BackgroundImageFix"/>
<feColorMatrix in="SourceAlpha" type="matrix" values="0 0 0 0 0 0 0 0 0 0 0 0 0 0 0 0 0 0 127 0"/>
<feOffset dy="6"/>
<feGaussianBlur stdDeviation="6"/>
<feColorMatrix type="matrix" values="0 0 0 0 0 0 0 0 0 0 0 0 0 0 0 0 0 0 0.1 0"/>
<feBlend mode="multiply" in2="BackgroundImageFix" result="effect1_dropShadow"/>
<feBlend mode="normal" in="SourceGraphic" in2="effect1_dropShadow" result="shape"/>
</filter>
<filter id="filter1_i" x="0" y="0" width="17" height="17" filterUnits="userSpaceOnUse" color-interpolation-filters="sRGB">
<feFlood flood-opacity="0" result="BackgroundImageFix"/>
<feBlend mode="normal" in="SourceGraphic" in2="BackgroundImageFix" result="shape"/>
<feColorMatrix in="SourceAlpha" type="matrix" values="0 0 0 0 0 0 0 0 0 0 0 0 0 0 0 0 0 0 127 0" result="hardAlpha"/>
<feOffset/>
<feGaussianBlur stdDeviation="2.5"/>
<feComposite in2="hardAlpha" operator="arithmetic" k2="-1" k3="1"/>
<feColorMatrix type="matrix" values="0 0 0 0 0 0 0 0 0 0 0 0 0 0 0 0 0 0 0.5 0"/>
<feBlend mode="normal" in2="shape" result="effect1_innerShadow"/>
</filter>
<filter id="filter2_d" x="-301" y="-164" width="588" height="385" filterUnits="userSpaceOnUse" color-interpolation-filters="sRGB">
<feFlood flood-opacity="0" result="BackgroundImageFix"/>
<feColorMatrix in="SourceAlpha" type="matrix" values="0 0 0 0 0 0 0 0 0 0 0 0 0 0 0 0 0 0 127 0"/>
<feOffset dy="6"/>
<feGaussianBlur stdDeviation="6"/>
<feColorMatrix type="matrix" values="0 0 0 0 0 0 0 0 0 0 0 0 0 0 0 0 0 0 0.1 0"/>
<feBlend mode="multiply" in2="BackgroundImageFix" result="effect1_dropShadow"/>
<feBlend mode="normal" in="SourceGraphic" in2="effect1_dropShadow" result="shape"/>
</filter>
<filter id="filter3_i" x="0" y="0" width="17" height="17" filterUnits="userSpaceOnUse" color-interpolation-filters="sRGB">
<feFlood flood-opacity="0" result="BackgroundImageFix"/>
<feBlend mode="normal" in="SourceGraphic" in2="BackgroundImageFix" result="shape"/>
<feColorMatrix in="SourceAlpha" type="matrix" values="0 0 0 0 0 0 0 0 0 0 0 0 0 0 0 0 0 0 127 0" result="hardAlpha"/>
<feOffset/>
<feGaussianBlur stdDeviation="2.5"/>
<feComposite in2="hardAlpha" operator="arithmetic" k2="-1" k3="1"/>
<feColorMatrix type="matrix" values="0 0 0 0 0 0 0 0 0 0 0 0 0 0 0 0 0 0 0.5 0"/>
<feBlend mode="normal" in2="shape" result="effect1_innerShadow"/>
</filter>
<linearGradient id="paint0_linear" x1="12.7832" y1="-0.0885416" x2="1.5469" y2="4.12507" gradientUnits="userSpaceOnUse">
<stop stop-color="#8AB900"/>
<stop offset="1" stop-color="#005BB8"/>
</linearGradient>
<linearGradient id="paint1_linear" x1="12.7832" y1="-0.0885416" x2="1.5469" y2="4.12507" gradientUnits="userSpaceOnUse">
<stop stop-color="#8AB900"/>
<stop offset="1" stop-color="#005BB8"/>
</linearGradient>
<clipPath id="clip0">
<rect width="425" height="279" fill="white" transform="translate(-253 -102)"/>
</clipPath>
<clipPath id="clip1">
<rect width="129" height="524" fill="white" transform="translate(-65 -102)"/>
</clipPath>
<clipPath id="clip2">
<rect width="425" height="279" fill="white" transform="translate(-253 -102)"/>
</clipPath>
<clipPath id="clip3">
<rect width="129" height="524" fill="white" transform="translate(-65 -102)"/>
</clipPath>
</defs>
</svg>
