<svg width="22" height="20" viewBox="0 0 22 20" fill="none" xmlns="http://www.w3.org/2000/svg">
<path fill-rule="evenodd" clip-rule="evenodd" d="M17.4166 8.33334C17.4166 4.95069 15.3648 2.60292 12.7099 1.8981C12.6138 1.67198 12.4619 1.46176 12.2553 1.28537C11.5497 0.682669 10.4502 0.682669 9.74462 1.28537C9.53856 1.46137 9.38684 1.67105 9.29068 1.89661C6.63238 2.59837 4.58331 4.941 4.58331 8.33334C4.58331 10.5283 4.09655 11.7582 3.19544 12.6495C3.04478 12.7985 2.6366 13.1398 2.36009 13.3711L2.36008 13.3711L2.35995 13.3712C2.2292 13.4805 2.12791 13.5652 2.09728 13.5933L1.83331 13.8366V16.6784H7.41396C7.60266 17.5634 8.1309 18.1556 9.08616 18.6855C10.2613 19.3374 11.7387 19.3374 12.9138 18.6855C13.7568 18.2178 14.3221 17.4991 14.5514 16.6784H20.1666V13.8366L19.9027 13.5933C19.8749 13.5677 19.7777 13.4862 19.6506 13.3796C19.3749 13.1484 18.9587 12.7994 18.8057 12.6475C17.904 11.752 17.4166 10.5205 17.4166 8.33334ZM12.592 16.6784H9.33038C9.45989 16.8974 9.68063 17.0628 10.0412 17.2628C10.6299 17.5894 11.3701 17.5894 11.9588 17.2628C12.2314 17.1116 12.4445 16.9115 12.592 16.6784ZM17.4535 13.7729C17.6464 13.9644 18.0598 14.3145 18.3333 14.5433V15.0118H3.66665V14.5437C3.93805 14.3176 4.35271 13.9677 4.54526 13.7773C5.76968 12.5662 6.41665 10.9315 6.41665 8.33334C6.41665 5.18325 8.55502 3.34366 11 3.34366C13.438 3.34366 15.5833 5.19275 15.5833 8.33334C15.5833 10.9232 16.2305 12.5583 17.4535 13.7729ZM11.0003 13.332C11.5067 13.332 11.9172 12.9589 11.9172 12.4986C11.9172 12.0384 11.5067 11.6653 11.0003 11.6653C10.4939 11.6653 10.0833 12.0384 10.0833 12.4986C10.0833 12.9589 10.4939 13.332 11.0003 13.332ZM11.92 5.83196H10.086V10.832H11.92V5.83196Z" fill="#F05032"/>
</svg>
