<svg width="21" height="22" viewBox="0 0 21 22" fill="none" xmlns="http://www.w3.org/2000/svg">
<g filter="url(#filter0_i)">
<rect y="3" width="17" height="17" rx="2" fill="url(#paint0_linear)"/>
</g>
<path d="M6.695 8.195C6.695 8.305 6.66167 8.41167 6.595 8.515L2.54 14.21H6.635V15H1.265V14.62C1.265 14.5667 1.27333 14.5167 1.29 14.47C1.31 14.4233 1.33333 14.3783 1.36 14.335L5.425 8.625H1.455V7.835H6.695V8.195ZM11.2156 10.315C11.2156 10.3783 11.204 10.44 11.1806 10.5C11.1606 10.56 11.1323 10.6117 11.0956 10.655L8.35063 14.305H11.1206V15H7.30563V14.63C7.30563 14.5867 7.31563 14.5367 7.33563 14.48C7.35563 14.42 7.38563 14.3633 7.42563 14.31L10.1856 10.635H7.46063V9.935H11.2156V10.315ZM15.7371 10.315C15.7371 10.3783 15.7254 10.44 15.7021 10.5C15.6821 10.56 15.6538 10.6117 15.6171 10.655L12.8721 14.305H15.6421V15H11.8271V14.63C11.8271 14.5867 11.8371 14.5367 11.8571 14.48C11.8771 14.42 11.9071 14.3633 11.9471 14.31L14.7071 10.635H11.9821V9.935H15.7371V10.315Z" fill="white"/>
<defs>
<filter id="filter0_i" x="0" y="3" width="17" height="17" filterUnits="userSpaceOnUse" color-interpolation-filters="sRGB">
<feFlood flood-opacity="0" result="BackgroundImageFix"/>
<feBlend mode="normal" in="SourceGraphic" in2="BackgroundImageFix" result="shape"/>
<feColorMatrix in="SourceAlpha" type="matrix" values="0 0 0 0 0 0 0 0 0 0 0 0 0 0 0 0 0 0 127 0" result="hardAlpha"/>
<feOffset/>
<feGaussianBlur stdDeviation="2.5"/>
<feComposite in2="hardAlpha" operator="arithmetic" k2="-1" k3="1"/>
<feColorMatrix type="matrix" values="0 0 0 0 0 0 0 0 0 0 0 0 0 0 0 0 0 0 0.5 0"/>
<feBlend mode="normal" in2="shape" result="effect1_innerShadow"/>
</filter>
<linearGradient id="paint0_linear" x1="12.7832" y1="2.91146" x2="1.5469" y2="7.12507" gradientUnits="userSpaceOnUse">
<stop stop-color="#8AB900"/>
<stop offset="1" stop-color="#005BB8"/>
</linearGradient>
</defs>
</svg>
