<svg width="40" height="40" viewBox="0 0 40 40" fill="none" xmlns="http://www.w3.org/2000/svg">
<path fill-rule="evenodd" clip-rule="evenodd" d="M6.36331 3.33334H33.636C35.3096 3.33334 36.6663 4.99155 36.6663 7.03705L36.6663 18.3334V21.6667L36.6663 32.963C36.6663 35.0085 35.3096 36.6667 33.636 36.6667H6.36331C4.68972 36.6667 3.33301 35.0085 3.33301 32.963V7.03705C3.33301 4.99155 4.68972 3.33334 6.36331 3.33334ZM33.333 18.3334V6.66668H6.66634V18.3334H12.3567L16.1042 22.0808L21.27 10.0271L27.4997 18.3334H33.333ZM6.66634 21.6667H10.976L17.2285 27.9192L22.0627 16.6396L25.833 21.6667H33.333V33.3333H6.66634V21.6667Z" fill="url(#paint0_linear)"/>
<defs>
<linearGradient id="paint0_linear" x1="28.3981" y1="3.15973" x2="6.36615" y2="11.4217" gradientUnits="userSpaceOnUse">
<stop stop-color="#8AB900"/>
<stop offset="1" stop-color="#005BB8"/>
</linearGradient>
</defs>
</svg>
