<svg width="77" height="77" viewBox="0 0 77 77" fill="none" xmlns="http://www.w3.org/2000/svg">
<rect width="77" height="77" rx="38.5" fill="#F05032"/>
<path fill-rule="evenodd" clip-rule="evenodd" d="M10 38.4167C10 54.1108 22.7226 66.8333 38.4167 66.8333C54.1108 66.8333 66.8333 54.1108 66.8333 38.4167C66.8333 22.7226 54.1108 10 38.4167 10C22.7226 10 10 22.7226 10 38.4167ZM61.6666 38.4167C61.6666 51.2573 51.2573 61.6667 38.4167 61.6667C25.576 61.6667 15.1667 51.2573 15.1667 38.4167C15.1667 25.576 25.576 15.1667 38.4167 15.1667C51.2573 15.1667 61.6666 25.576 61.6666 38.4167ZM43.5833 35.8333V30.6667H48.75V35.8333H43.5833ZM28.0834 30.6667V35.8333H33.25V30.6667H28.0834Z" fill="white"/>
<path fill-rule="evenodd" clip-rule="evenodd" d="M47.1451 50.5639C45.2196 47.8262 42.0943 46.1667 38.6856 46.1667C35.2769 46.1667 32.1516 47.8262 30.2261 50.5639L26 47.5916C28.883 43.4925 33.5769 41 38.6856 41C43.7943 41 48.4882 43.4925 51.3712 47.5916L47.1451 50.5639Z" fill="#FFFEFE"/>
</svg>
